<?xml version="1.0" encoding="utf-8"?>
<!-- Generator: Adobe Illustrator 27.5.0, SVG Export Plug-In . SVG Version: 6.00 Build 0)  -->
<svg version="1.1" xmlns="http://www.w3.org/2000/svg" xmlns:xlink="http://www.w3.org/1999/xlink" x="0px" y="0px"
	 viewBox="0 0 500 500" style="enable-background:new 0 0 500 500;" xml:space="preserve">
<g id="BACKGROUND_2">
</g>
<g id="BACKGROUND_1">
	<rect y="0" style="fill-rule:evenodd;clip-rule:evenodd;fill:#F8F9F9;" width="500" height="500"/>
	<g>
		<path style="fill-rule:evenodd;clip-rule:evenodd;fill:#E8EAED;" d="M250.011,453.34c111.975,0,203.329-91.354,203.329-203.329
			c0-111.997-91.354-203.351-203.329-203.351c-111.997,0-203.351,91.354-203.351,203.351
			C46.66,361.986,138.014,453.34,250.011,453.34L250.011,453.34z"/>
		<path style="fill-rule:evenodd;clip-rule:evenodd;fill:#FDFDFD;" d="M321.617,200.402c2.25,0,4.369,0.481,6.313,1.354
			c-0.022-0.371-0.044,5.636-0.044-1.114c0-6.75,8.65-19.354,21.779-19.354c13.15,0,22.391,6.619,22.391,19.747l5.243-1.595
			c7.58,0.087,13.5,8.454,11.883,15.116c-1.616,6.641-0.066,1.682-0.218,2.512l27.044,6.75H308.227
			c-1.376-2.316-2.141-5.002-2.141-7.886C306.086,207.37,313.032,200.402,321.617,200.402L321.617,200.402z"/>
	</g>
	<g>
		<path style="fill-rule:evenodd;clip-rule:evenodd;fill:#AA5956;" d="M148.696,84.997c0,0,28.027-0.393,30.844,0.109
			c2.818,0.502-0.109,9.065-0.109,9.065l23.395,0.306l-7.864,8.366l10.376,5.942c0,0-30.735,0.917-31.238-0.699
			c-0.502-1.617,1.398-4.434,1.398-4.434l-24.291,1.42L148.696,84.997z"/>
		<rect x="145.179" y="80.563" style="fill-rule:evenodd;clip-rule:evenodd;fill:#785840;" width="9.044" height="217.943"/>
		<path style="fill-rule:evenodd;clip-rule:evenodd;fill:#785840;" d="M149.701,87.422c5.112,0,9.262-4.172,9.262-9.262
			c0-5.112-4.15-9.284-9.262-9.284c-5.112,0-9.284,4.172-9.284,9.284C140.417,83.25,144.589,87.422,149.701,87.422L149.701,87.422z"
			/>
		<path style="fill-rule:evenodd;clip-rule:evenodd;fill:#E8E0B1;" d="M117.24,180.174l78.094,1.573c0,0-17.214,29.075-13.98,51.247
			c3.233,22.172,17.345,35.891,17.345,35.891l-89.126,0.393C109.572,269.278,80.541,216.851,117.24,180.174L117.24,180.174z"/>
		<path style="fill-rule:evenodd;clip-rule:evenodd;fill:#D8D2A9;" d="M178.907,181.419l16.427,0.328
			c0,0-17.214,29.075-13.98,51.247c3.233,22.172,17.345,35.891,17.345,35.891l-14.745,0.066
			c-6.051-10.551-12.779-25.252-14.461-40.609C167.679,211.848,173.468,194.22,178.907,181.419L178.907,181.419z"/>
		<path style="fill-rule:evenodd;clip-rule:evenodd;fill:#8B6245;" d="M103.084,322.6c0,0,14.92,57.67,27.415,74.206
			c12.517,16.536,44.366,35.891,116.126,36.284c71.781,0.415,95.985-26.607,102.822-48.386c6.859-21.779,12.91-56.446,12.91-56.446
			s13.718-3.43,17.541-13.303c3.823-9.896,0.808-22.194,0.808-22.194s-46.376,9.481-47.577,11.512
			c-1.223,2.01-27.218,33.859-27.218,33.859s-10.485,9.284-11.905,9.677c-1.398,0.415-61.886,6.051-64.114,5.046
			c-2.206-1.005-12.08-15.531-14.308-15.728c-2.206-0.197-16.536-6.248-16.536-6.248l-7.252-9.874L103.084,322.6z"/>
		<path style="fill-rule:evenodd;clip-rule:evenodd;fill:#80573A;" d="M103.084,322.6c0,0,0.087,0.35,0.262,0.983h90.349l-1.9-2.578
			L103.084,322.6z M106.514,335.052c1.136,3.976,2.534,8.694,4.085,13.697h115.405c-3.779-4.609-8.891-11.49-10.42-11.621
			c-0.83-0.087-3.386-0.983-6.226-2.075H106.514z M114.313,360.239c1.573,4.609,3.233,9.284,4.937,13.697h233.278
			c1.18-4.478,2.316-9.131,3.364-13.697H114.313z M124.055,385.425c2.163,4.631,4.347,8.585,6.444,11.381
			c0.59,0.765,1.201,1.551,1.879,2.315h209.97c3.189-4.587,5.396-9.24,6.881-13.697H124.055z M358.382,348.748
			c1.114-5.33,2.053-10.114,2.731-13.697h-52.689l-2.512,3.08c0,0-10.485,9.284-11.905,9.677c-0.306,0.087-3.692,0.459-8.716,0.939
			H358.382z M372.559,323.583c3.015-2.075,5.898-4.893,7.34-8.629c0.633-1.66,1.092-3.364,1.398-5.09h-52.492
			c-3.015,3.757-7.121,8.869-11.053,13.718H372.559z"/>
		<path style="fill-rule:evenodd;clip-rule:evenodd;fill:#80573A;" d="M103.084,322.6c0,0,14.92,57.67,27.415,74.206
			c4.937,6.532,12.91,13.5,25.165,19.573c-4.675-8.039-10.376-18.59-13.74-27.459c-4.566-12.015-7.121-47.337-8.214-66.866
			L103.084,322.6z"/>
		<path style="fill-rule:evenodd;clip-rule:evenodd;fill:#784E31;" d="M103.084,322.6c0,0,0.087,0.35,0.262,0.983h30.451
			l-0.087-1.529L103.084,322.6z M134.519,335.052c0.306,4.369,0.655,9.022,1.07,13.697h-24.99
			c-1.551-5.002-2.949-9.721-4.085-13.697H134.519z M136.725,360.239c0.524,4.828,1.114,9.481,1.769,13.697h-19.245
			c-1.704-4.413-3.364-9.087-4.937-13.697H136.725z M140.81,385.425c0.35,1.311,0.721,2.49,1.114,3.495
			c1.245,3.255,2.774,6.706,4.478,10.201h-14.024c-0.677-0.765-1.289-1.551-1.879-2.315c-2.097-2.796-4.282-6.75-6.444-11.381
			H140.81z"/>
		<path style="fill:#322A22;" d="M388.287,283.411c3.451-0.874,6.947,1.201,7.82,4.653c0.874,3.43-1.201,6.925-4.631,7.798
			l-54.568,14.068c-6.422,8.476-33.684,44.039-39.386,44.213c-0.612,0.022-4.325,0.35-9.655,0.808
			c-19.136,1.704-57.866,5.155-62.17,2.665c-3.692-2.119-5.09-6.488-6.575-11.097c-0.83-2.643-0.655-5.068-1.201-5.265
			c-1.092-0.393-5.483,0.109-9.065,0.524c-4.478,0.524-8.192,0.939-10.813-0.917c-2.621-1.879-3.08-4.522-3.692-7.886
			c-0.393-2.316-0.131-5.483-0.568-5.57c-5.002-1.092-98.912,0.306-99.196,0.328c-3.539,0.022-6.444-2.818-6.488-6.357
			c-0.044-3.561,2.796-6.466,6.335-6.51c0.066,0,3.43-0.044,8.913-0.109v-15.4l-6.881,0.131c-3.561,0.087-6.488-2.731-6.553-6.291
			c-0.087-3.539,2.752-6.488,6.291-6.553c0.218,0,79.23-1.638,83.14-0.24c5.308,1.879,6.444,18.917,6.663,27.917
			c5.527,0.087,9.349,0.24,10.442,0.481c7.383,1.573,9.284,8.76,10.332,14.396c0.153-0.109,0.35-0.197,0.633-0.218
			c4.893-0.568,10.922-1.267,14.898,0.175c5.396,1.966,7.296,7.886,9.065,13.434c0.699,2.184,0.066,3.517,0.721,3.888
			c0.808,0.481,36.852-2.731,54.655-4.325c5.592-0.502,9.502-0.83,10.42-0.874c0.153,0,30.713-40.762,30.801-40.871h0.022
			c0.83-1.136,2.075-1.988,3.539-2.359L388.287,283.411z M111.757,314.649c2.643-0.044,5.527-0.066,8.541-0.109v-15.488
			c-3.015,0.044-5.898,0.109-8.541,0.153V314.649z M128.708,314.452c2.796-0.022,5.658-0.044,8.563-0.066v-15.641
			c-2.862,0.044-5.745,0.109-8.563,0.153V314.452z M145.681,314.321c2.862-0.022,5.723-0.044,8.541-0.066v-15.75
			c-2.709,0.044-5.592,0.066-8.541,0.109V314.321z M162.633,314.234c3.998-0.022,7.82-0.022,11.403,0
			c0.896-6.138,0.175-15.422-0.896-15.794c-0.415-0.153-3.408-0.066-10.507-0.022V314.234z"/>
		<path style="fill-rule:evenodd;clip-rule:evenodd;fill:#85B787;" d="M120.058,385.6c3.386-1.529,23.789,14.92,40.325,18.153
			c16.536,3.233,27.415,0.808,43.558-5.243c16.121-6.051,27.808,7.667,27.808,7.667s-10.07-2.818-9.677,5.636
			c0.415,8.476,12.299,12.298,21.364,7.252c9.087-5.024,12.517-12.08,21.189-17.323c8.65-5.243,21.167,0,21.167,0
			s-10.704,1.398-9.284,8.061c1.42,6.641,11.687,8.061,17.345,2.425c5.636-5.658,8.257-15.728,15.728-22.784
			c7.449-7.056,15.116-6.466,20.359-5.243c5.243,1.201,6.138,4.631,6.138,4.631s-3.714-1.507-5.243,0.808
			c-1.507,2.316,3.539,8.061,7.864,4.74c4.347-3.32,5.658-4.347,8.476-19.048c2.818-14.723,10.682-23.199,22.98-24.4
			c12.298-1.201,25.012,4.434,25.602,20.359c0.612,15.925-3.43,28.223-15.728,27.022c-12.298-1.223-9.262-10.289-9.262-10.289
			s3.626,2.621,4.631,0.197c1.005-2.403,1.005-6.248-3.823-4.434c-4.849,1.813-4.041,6.248-9.677,13.915
			c-5.658,7.667-13.303,10.485-13.303,10.485s5.243,8.061-3.233,16.121c-8.476,8.083-20.971,4.041-20.971,4.041
			s-6.444-1.42-11.687,3.015s-6.051,6.663-6.051,6.663s1.616,13.5-14.112,17.345c-15.728,3.823-22.784-6.248-22.784-6.248
			s-14.92-3.648-23.985-1.813c-9.087,1.813-14.92,4.631-14.92,4.631s-8.061,18.349-22.98,9.874
			c-14.92-8.476-11.294-19.354-11.294-19.354S144.152,431.364,120.058,385.6L120.058,385.6z"/>
		<path style="fill-rule:evenodd;clip-rule:evenodd;fill:#96C29B;" d="M120.058,385.6c3.386-1.529,23.789,14.92,40.325,18.153
			c16.536,3.233,27.415,0.808,43.558-5.243c16.121-6.051,27.808,7.667,27.808,7.667s-10.07-2.818-9.677,5.636
			c0.415,8.476,12.299,12.298,21.364,7.252c9.087-5.024,12.517-12.08,21.189-17.323c8.65-5.243,21.167,0,21.167,0
			s-10.704,1.398-9.284,8.061c1.42,6.641,11.687,8.061,17.345,2.425c5.636-5.658,8.257-15.728,15.728-22.784
			c7.449-7.056,15.116-6.466,20.359-5.243c5.243,1.201,6.138,4.631,6.138,4.631s-3.714-1.507-5.243,0.808
			c-1.507,2.316,3.539,8.061,7.864,4.74c4.347-3.32,5.658-4.347,8.476-19.048c2.818-14.723,10.682-23.199,22.98-24.4
			c12.298-1.201,25.012,4.434,25.602,20.359c0.612,15.925-3.43,28.223-15.728,27.022c-5.483-0.546-7.93-2.665-8.934-4.828
			c0.087,0.044,8.978,4.806,15.116-0.218c6.182-5.068,6.269-15.728,4.849-22.587s-6.248-13.915-18.961-14.112
			c-12.692-0.197-18.961,15.073-22.26,26.913c-3.299,11.862-7.493,15.641-13.609,16.536c-6.138,0.874-9.284-2.927-9.284-2.927
			s-0.153,4.085-2.731,6.051c-2.556,1.966-6.029,1.769-7.951,0.459c-1.922-1.311-2.01-2.84-1.005-5.046
			c1.005-2.228,2.818-0.612,2.818-0.612s-1.005,0.262-0.808,1.769c0.197,1.507,4.391,0.896,4.697-1.66
			c0.284-2.578-1.529-5.352-1.529-5.352s-1.398-0.197-3.015,0.197c-1.616,0.415-6.444,4.653-9.284,9.284
			c-2.818,4.631-5.636,14.112-13.697,18.349c-8.061,4.238-14.177,0.153-14.177,0.153s-0.044,2.206-1.442,4.391
			c-1.42,2.163-5.505,4.522-8.629,5.243c-3.124,0.699-7.012-0.721-7.099-5.767c-0.109-5.024,4.871-3.714,4.871-3.714
			s-1.813,1.158-0.044,3.015c1.769,1.879,4.478-0.306,5.352-1.966c0.852-1.66,0.087-3.583-1.311-5.985
			c-1.42-2.425,0.306-6.357,0.306-6.357s-0.721-0.306-2.621,0.197c-1.922,0.502-5.548,2.927-7.667,6.16
			c-2.119,3.211-13.303,8.65-19.267,11.381c-5.942,2.731-10.988,1.617-10.988,1.617s0.218,4.282-2.403,6.706
			c-2.621,2.425-6.816,2.119-8.214-1.267c-1.42-3.386,0.393-3.888,0.393-3.888s-0.066,1.638,1.114,2.075
			c1.158,0.437,2.359-0.852,2.272-2.468c-0.109-1.617-0.502-2.468-5.549-7.711s-3.43-10.879-3.43-10.879s-1.201-1.027-5.854-0.808
			c-4.631,0.197-14.308,6.837-28.616,7.646C159.509,419.547,137.883,397.221,120.058,385.6L120.058,385.6z"/>
		<path style="fill-rule:evenodd;clip-rule:evenodd;fill:#71A677;" d="M370.768,388.025c0,0,3.626,2.621,4.631,0.197
			c1.005-2.403,1.005-6.248-3.823-4.434c-4.849,1.813-4.041,6.248-9.677,13.915c-5.658,7.667-13.303,10.485-13.303,10.485
			s5.243,8.061-3.233,16.121c-8.476,8.083-20.971,4.041-20.971,4.041s-6.444-1.42-11.687,3.015s-6.051,6.663-6.051,6.663
			s1.616,13.5-14.112,17.345c-15.728,3.823-22.784-6.248-22.784-6.248s-14.92-3.648-23.985-1.813
			c-9.087,1.813-14.92,4.631-14.92,4.631s-8.061,18.349-22.98,9.874c-14.92-8.476-11.294-19.354-11.294-19.354
			s-52.427-11.097-76.521-56.861c0,0,13.063,20.184,35.607,30.779c22.544,10.595,44.017,17.869,44.017,17.869
			s6.553-5.658,14.92-1.813c8.366,3.823,6.051,10.573,4.522,13.609c-1.507,3.015-6.641,2.709-6.641,2.709s3.015-4.434,2.206-6.947
			c-0.786-2.534-4.937-3.342-6.553-0.109c-1.595,3.233-1.704,5.942,1.311,8.476c3.036,2.512,6.859,3.517,11.206,0.59
			c4.325-2.905,4.631-8.148,4.631-8.148s12.91-16.34,24.4-13.522c11.49,2.818,18.131,11.294,18.131,11.294
			s4.434-13.194,14.92-13.806c10.485-0.612,13.325,8.869,12.801,11.796c-0.502,2.927-2.709,8.061-8.65,7.449
			c-5.964-0.59-3.932-6.248-3.932-6.248s3.932,1.922,4.937-0.087c1.005-2.032,0.197-6.051-3.342-5.046
			c-3.517,1.005-5.33,2.425-5.024,6.335c0.306,3.932,1.704,6.772,5.33,7.864c3.626,1.114,9.481-0.896,11.097-4.325
			c1.616-3.43,1.922-6.75,1.922-6.75s-0.109-9.481,6.029-14.614c6.16-5.155,16.755-2.031,16.755-2.031s-1.027-7.558,1.289-12.08
			c2.337-4.544,8.978-7.471,13.107-4.74c4.15,2.709,4.74,7.951,1.726,10.988c-3.036,3.015-5.352,2.512-5.352,2.512
			s2.228-3.473,1.223-5.439c-1.027-1.966-4.434-1.245-4.981,1.616c-0.568,2.862-0.677,4.893,2.097,6.291
			c2.774,1.42,6.859,0.568,9.437-3.233c2.556-3.779,1.813-7.296,1.813-7.296l-1.005-5.243c0,0,11.883-7.471,16.121-13.303
			c4.238-5.854,3.823-16.34,14.112-17.345c10.289-1.005,12.604,6.444,11.993,11.294c-0.612,4.828-6.444,6.75-8.672,6.248
			C371.357,390.69,370.768,388.025,370.768,388.025L370.768,388.025z"/>
		<path style="fill-rule:evenodd;clip-rule:evenodd;fill:#784E31;" d="M164.096,336.188c3.43,0,6.226,2.774,6.226,6.204
			c0,2.578-1.551,4.762-3.779,5.723v3.102h5.265c0.765,0,1.376,0.612,1.376,1.354v3.91c0,0.743-0.612,1.354-1.376,1.354h-5.133
			l-0.262,24.466c0,0,8.082-0.721,12.32-5.614c4.26-4.915,2.883-9.721,2.883-9.721s-2.163,0.415-2.294-0.306
			c-0.153-0.721,2.01-9,2.949-8.934c0.939,0.087,5.046,7.711,4.544,8.41c-0.524,0.677-1.66,0.721-1.66,0.721
			s0.437,4.893-1.595,10.573c-2.01,5.701-10.354,10.158-13.697,12.036c-2.032,1.158-3.604,1.988-5.701,2.949
			c-2.097-0.961-3.67-1.791-5.723-2.949c-3.32-1.879-11.665-6.335-13.675-12.036c-2.032-5.68-1.595-10.573-1.595-10.573
			s-1.158-0.044-1.66-0.721c-0.502-0.699,3.604-8.323,4.544-8.41c0.939-0.066,3.102,8.214,2.949,8.934
			c-0.131,0.721-2.294,0.306-2.294,0.306s-1.376,4.806,2.883,9.721c4.238,4.893,12.32,5.614,12.32,5.614l-0.262-24.466h-5.265
			c-0.743,0-1.354-0.612-1.354-1.354v-3.91c0-0.743,0.612-1.354,1.354-1.354h5.265v-3.102c-2.206-0.961-3.757-3.146-3.757-5.723
			C157.892,338.962,160.667,336.188,164.096,336.188L164.096,336.188z M164.096,339.727c1.485,0,2.687,1.18,2.687,2.665
			c0,1.485-1.201,2.687-2.687,2.687c-1.485,0-2.687-1.201-2.687-2.687C161.409,340.906,162.611,339.727,164.096,339.727
			L164.096,339.727z"/>
		<path style="fill-rule:evenodd;clip-rule:evenodd;fill:#AFC8D8;" d="M166.106,334.571c3.451,0,6.226,2.774,6.226,6.204
			c0,2.578-1.551,4.762-3.757,5.723v3.102h5.265c0.743,0,1.354,0.612,1.354,1.354v3.91c0,0.743-0.612,1.354-1.354,1.354h-5.155
			l-0.262,24.466c0,0,8.082-0.721,12.32-5.614c4.26-4.893,2.883-9.721,2.883-9.721s-2.163,0.415-2.294-0.306
			c-0.153-0.721,2.01-9,2.949-8.934c0.939,0.087,5.046,7.711,4.544,8.41c-0.502,0.677-1.66,0.721-1.66,0.721
			s0.437,4.893-1.595,10.595c-2.01,5.68-10.354,10.136-13.675,12.014c-2.053,1.158-3.626,2.01-5.723,2.949
			c-2.097-0.939-3.67-1.791-5.701-2.949c-3.342-1.879-11.687-6.335-13.697-12.014c-2.01-5.701-1.595-10.595-1.595-10.595
			s-1.136-0.044-1.66-0.721c-0.502-0.699,3.604-8.323,4.544-8.41c0.939-0.066,3.102,8.214,2.949,8.934
			c-0.131,0.721-2.294,0.306-2.294,0.306s-1.376,4.828,2.883,9.721c4.238,4.893,12.32,5.614,12.32,5.614l-0.262-24.466h-5.265
			c-0.743,0-1.354-0.612-1.354-1.354v-3.91c0-0.743,0.612-1.354,1.354-1.354h5.265v-3.102c-2.206-0.961-3.757-3.146-3.757-5.723
			C159.902,337.345,162.676,334.571,166.106,334.571L166.106,334.571z M166.106,338.11c1.485,0,2.687,1.201,2.687,2.665
			c0,1.485-1.201,2.687-2.687,2.687c-1.464,0-2.665-1.201-2.665-2.687C163.441,339.311,164.642,338.11,166.106,338.11
			L166.106,338.11z"/>
		<path style="fill-rule:evenodd;clip-rule:evenodd;fill:#9FBBCC;" d="M173.424,349.6h0.415c0.743,0,1.354,0.612,1.354,1.354v3.91
			c0,0.743-0.612,1.354-1.354,1.354h-4.26L173.424,349.6z M170.955,380.27c2.731-0.612,7.056-2.053,9.786-5.199
			c4.26-4.893,2.883-9.721,2.883-9.721s-2.163,0.415-2.294-0.306c-0.153-0.721,2.01-9,2.949-8.934
			c0.939,0.087,5.046,7.711,4.544,8.41c-0.502,0.677-1.66,0.721-1.66,0.721s0.437,4.893-1.595,10.595
			c-2.01,5.68-10.354,10.136-13.675,12.014c-2.053,1.158-3.626,2.01-5.723,2.949c-0.852-0.393-1.617-0.743-2.359-1.136
			L170.955,380.27z"/>
		<path style="fill-rule:evenodd;clip-rule:evenodd;fill:#FFFFFF;" d="M131.024,233.649l-9.896,9.371c0,0-4.609-1.289-5.221,0.59
			c-0.59,1.879,0.044,3.342,1.289,3.823c1.267,0.502,2.447-0.087,2.447-0.087s-0.852,2.905,0.917,3.67
			c1.791,0.743,2.709-0.24,3.299-0.939c0.612-0.677-0.153-3.998-0.153-3.998l31.522-32.133c0,0,6.226,1.027,5.57-2.403
			c-0.655-3.43-4.107-1.813-4.107-1.813s1.267-3.102-0.481-4.129c-1.748-1.027-3.866-0.896-4.369,0.983
			c-0.481,1.879,0.896,4.587,0.896,4.587L131.024,233.649z"/>
		<path style="fill-rule:evenodd;clip-rule:evenodd;fill:#DED1BA;" d="M131.024,233.649l-3.735,3.539
			c0.961,0.874,1.988,1.835,2.665,2.512l22.238-22.675c-0.765-0.808-1.748-1.857-2.6-2.6L131.024,233.649z"/>
		<path style="fill-rule:evenodd;clip-rule:evenodd;fill:#FFFFFF;" d="M116.934,213.487c-1.529-2.184-0.633-3.91,0.568-4.391
			c1.18-0.502,3.561,0.284,3.561,0.284s-0.393-3.233,1.944-3.583c2.337-0.371,3.604-0.262,4.085,1.879
			c0.502,2.141-1.507,4.085-1.507,4.085l30.976,31.412c0,0,2.578-1.551,3.866,0.83c1.289,2.381-0.83,3.757-2.075,3.866
			c-1.245,0.087-2.665-0.524-2.665-0.524s1.07,1.311,0.35,2.862c-0.721,1.551-3.189,2.119-4.522,0.131
			c-1.311-1.988,0.633-4.413,0.633-4.413l-30.036-31.915C120.298,214.798,118.376,215.54,116.934,213.487L116.934,213.487z"/>
		<path style="fill-rule:evenodd;clip-rule:evenodd;fill:#DED1BA;" d="M128.184,214.426l21.43,21.714
			c-0.677,0.262-1.507,0.633-2.032,1.092c-0.502,0.437-0.852,1.595-1.092,2.687l-21.43-22.784c0.262-0.328,0.568-0.677,0.896-1.027
			C126.393,215.671,127.201,215.06,128.184,214.426L128.184,214.426z"/>
		<path style="fill-rule:evenodd;clip-rule:evenodd;fill:#FFFFFF;" d="M132.356,242.89c0,0,0.655-4.762-1.464-6.335
			c-2.097-1.595-6.728-3.954-6.99-10.704c-0.262-6.728,7.515-13.718,16.493-13.063s13.347,8.847,13.085,12.801
			c-0.284,3.976-2.905,8.585-5.286,9.109c-2.381,0.524-3.167,3.43-3.167,5.155c0,1.704-0.262,4.085-0.262,4.085
			S133.012,244.746,132.356,242.89L132.356,242.89z"/>
		<path style="fill-rule:evenodd;clip-rule:evenodd;fill:#43352F;" d="M133.776,231.028c1.551,0,2.818-1.704,2.818-3.801
			c0-2.097-1.267-3.801-2.818-3.801c-1.529,0-2.796,1.704-2.796,3.801C130.98,229.324,132.247,231.028,133.776,231.028
			L133.776,231.028z"/>
		<path style="fill-rule:evenodd;clip-rule:evenodd;fill:#43352F;" d="M144.436,231.028c1.551,0,2.796-1.704,2.796-3.801
			c0-2.097-1.245-3.801-2.796-3.801c-1.529,0-2.796,1.704-2.796,3.801C141.64,229.324,142.907,231.028,144.436,231.028
			L144.436,231.028z"/>
		<path style="fill-rule:evenodd;clip-rule:evenodd;fill:#43352F;" d="M138.866,230.875c0,0-2.687,2.075-1.66,3.342
			c1.027,1.245,1.42-1.835,1.42-1.835s-0.175,1.835,1.507,1.835C141.815,234.217,138.866,230.875,138.866,230.875L138.866,230.875z"
			/>
	</g>
	<g>
		<path style="fill-rule:evenodd;clip-rule:evenodd;fill:#AA5956;" d="M276.705,145.288c0.306-1.769,17.956-3.43,21.386-0.612
			s10.07,9.284,10.07,9.284s17.541-12.102,22.784-10.092c5.243,2.032,31.26,13.107,31.26,13.107l-23.199-2.621l17.738,12.91
			c0,0-23.374-10.092-28.005-9.874c-4.653,0.197-16.755,15.51-24.007,13.5c-7.252-2.01-7.667-13.107-13.915-13.107
			c-6.226,0-10.376,0.459-10.376,0.459L276.705,145.288z"/>
		<path style="fill-rule:evenodd;clip-rule:evenodd;fill:#43352F;" d="M231.399,148.325c0,0-21.386-2.403-24.597-9.066
			c-3.233-6.663,9.677-9.284,13.697-12.298c4.041-3.036,15.531-28.638,22.98-37.9c7.471-9.284,27.437-7.864,32.264,4.019
			c4.85,11.905,13.718,30.451,21.582,34.886s15.51,3.626,14.308,9.874c-1.201,6.248-8.476,9.284-25.798,8.869
			C268.491,146.315,231.399,148.325,231.399,148.325L231.399,148.325z"/>
		<path style="fill-rule:evenodd;clip-rule:evenodd;fill:#E5D3A5;" d="M250.557,122.526l-7.558,7.165c0,0-3.517-0.983-3.976,0.437
			c-0.459,1.442,0.022,2.556,0.983,2.927c0.961,0.371,1.857-0.066,1.857-0.066s-0.655,2.206,0.721,2.796
			c1.354,0.568,2.053-0.175,2.512-0.721c0.459-0.524-0.131-3.036-0.131-3.036l24.073-24.553c0,0,4.762,0.786,4.26-1.835
			c-0.502-2.621-3.124-1.398-3.124-1.398s0.961-2.359-0.393-3.146c-1.333-0.786-2.949-0.677-3.32,0.765
			c-0.371,1.442,0.677,3.495,0.677,3.495L250.557,122.526z"/>
		<path style="fill-rule:evenodd;clip-rule:evenodd;fill:#DFC199;" d="M250.557,122.526l-2.84,2.709
			c0.721,0.655,1.507,1.398,2.032,1.922l16.973-17.323c-0.568-0.612-1.333-1.42-1.988-1.988L250.557,122.526z"/>
		<path style="fill-rule:evenodd;clip-rule:evenodd;fill:#E5D3A5;" d="M239.81,107.126c-1.158-1.66-0.481-2.971,0.415-3.364
			c0.917-0.371,2.731,0.24,2.731,0.24s-0.306-2.468,1.485-2.752c1.791-0.284,2.752-0.197,3.124,1.442
			c0.371,1.638-1.158,3.124-1.158,3.124l23.658,23.985c0,0,1.966-1.18,2.949,0.633c0.983,1.813-0.633,2.883-1.595,2.949
			c-0.939,0.066-2.032-0.393-2.032-0.393s0.83,1.005,0.284,2.184c-0.568,1.18-2.447,1.617-3.451,0.087
			c-1.005-1.507,0.481-3.364,0.481-3.364l-22.937-24.379C242.365,108.131,240.902,108.699,239.81,107.126L239.81,107.126z"/>
		<path style="fill-rule:evenodd;clip-rule:evenodd;fill:#DFC199;" d="M248.394,107.847l16.362,16.58
			c-0.524,0.197-1.136,0.481-1.551,0.83c-0.371,0.35-0.655,1.223-0.83,2.053l-16.362-17.388c0.197-0.262,0.437-0.524,0.677-0.786
			C247.018,108.808,247.652,108.327,248.394,107.847L248.394,107.847z"/>
		<path style="fill-rule:evenodd;clip-rule:evenodd;fill:#77AB7C;" d="M222.312,148.74c0,0-4.019-6.553-13.5-10.485
			c-9.481-3.932-13.718-2.119-13.718-2.119s0.808,6.75,6.466,11.883c5.636,5.155,13.5,5.461,13.5,5.461s-9.371,1.704-11.599,7.646
			c-2.206,5.964,0.109,15.531,0.109,15.531s7.165-4.325,12.997-9.786c5.854-5.439,6.357-15.313,6.357-15.313L222.312,148.74z"/>
		<path style="fill-rule:evenodd;clip-rule:evenodd;fill:#A5ABA9;" d="M176.002,140.679c1.158-0.852,50.592-35.279,50.592-35.279
			l15.925-0.415l-10.267,12.91l-53.934,29.228L176.002,140.679z"/>
		<polygon style="fill-rule:evenodd;clip-rule:evenodd;fill:#B6BBB9;" points="177.29,142.492 227.686,108.83 240.64,105.749 
			231.028,114.465 178.798,144.808 		"/>
		<polygon style="fill-rule:evenodd;clip-rule:evenodd;fill:#7E5844;" points="156.953,151.055 172.07,141.138 177.618,149.963 
			161.977,159.727 		"/>
		<polygon style="fill-rule:evenodd;clip-rule:evenodd;fill:#45382B;" points="169.142,138.451 179.824,153.895 184.87,150.356 
			173.271,134.519 		"/>
		<polygon style="fill-rule:evenodd;clip-rule:evenodd;fill:#45382B;" points="158.439,145.07 167.613,159.793 163.288,161.803 
			154.922,148.106 		"/>
		<path style="fill-rule:evenodd;clip-rule:evenodd;fill:#E0BB8D;" d="M177.509,195.225c0,0-9.065-11.599-11.294-22.5
			c-2.206-10.879-3.015-13.5-2.119-15.706c0.917-2.228,2.032-2.84,4.74-2.84c2.731,0,3.32,0.109,3.32,0.109s0.721-4.129,0.524-5.133
			c-0.218-1.005-2.337-3.036-3.036-4.434c-0.699-1.42-0.896-3.539,0.699-3.735c1.617-0.197,3.342,0.808,3.342,0.808
			s3.823,3.43,4.631,5.33c0.808,1.922-0.415,11.206,0,13.915c0.393,2.731,3.32,11.905,6.051,16.646
			c2.709,4.718,6.444,9.961,6.444,9.961L177.509,195.225z"/>
		<path style="fill-rule:evenodd;clip-rule:evenodd;fill:#E0BB8D;" d="M319.826,237.144c0,0,3.43,6.859,1.813,20.359
			c-1.616,13.5-7.252,20.556-7.252,20.556l-11.097-7.842c0,0,4.937-11.905,5.243-19.158c0.306-7.252-1.944-11.643-1.944-11.643
			L319.826,237.144z"/>
		<path style="fill-rule:evenodd;clip-rule:evenodd;fill:#F8E8CF;" d="M288.479,195.312c0,0,13.303,2.01,24.597,19.354
			c11.294,17.345,10.9,31.456,10.9,31.456l-4.74-3.735l-2.228,3.626l-2.425-3.932l-3.932,4.238l-1.813-2.512l-3.932,3.408
			l-9.262-19.747l-8.061-18.153L288.479,195.312z"/>
		<path style="fill-rule:evenodd;clip-rule:evenodd;fill:#A96259;" d="M306.086,205.885c2.316,2.359,4.697,5.265,6.99,8.782
			c2.053,3.146,3.714,6.16,5.046,9.022l-17.235,8.41l-5.854-14.723L306.086,205.885z"/>
		<path style="fill-rule:evenodd;clip-rule:evenodd;fill:#7E5844;" d="M229.543,322.426c0.502,0.699,7.274,23.898,7.274,23.898
			l7.383-0.524l-4.063-26.104L229.543,322.426z"/>
		<path style="fill-rule:evenodd;clip-rule:evenodd;fill:#828D8A;" d="M211.215,251.059l-2.84,2.883c0,0,0.218,26.345,3.43,38.228
			c3.233,11.905,6.248,22.784,8.672,26.432c2.425,3.626,9.481,5.636,9.481,5.636l12.495-1.42c0,0,5.046-6.248,5.046-9.874
			c0-3.626,1.201-12.495,2.621-14.308c1.398-1.813,4.828-4.631,8.454-2.425c3.648,2.228,5.461,4.238,5.461,9.066
			c0,4.849,0.393,10.289,0.393,10.289l24.859-0.786c0,0,5.811-6.073,6.815-11.709c0.983-5.658,3.801-28.027,3.801-32.876
			c0-4.828-3.211-10.879-3.211-10.879L211.215,251.059z"/>
		<path style="fill-rule:evenodd;clip-rule:evenodd;fill:#7E5844;" d="M264.297,313.666l-2.49,30.692l5.57-0.481l1.9-7.973
			l3.561,7.493l23.767-2.075c0,0,0.874-2.709-3.255-7.034c-2.075-2.163-4.26-3.364-7.427-5.439
			c1.835-4.587,5.461-14.243,5.461-14.177c0.022,0.917-1.092-2.862-1.092-2.862L264.297,313.666z"/>
		<polygon style="fill-rule:evenodd;clip-rule:evenodd;fill:#322A22;" points="260.802,306.698 261.916,315.981 292.258,315.566 
			296.999,306.807 		"/>
		<path style="fill-rule:evenodd;clip-rule:evenodd;fill:#F8E8CF;" d="M240.072,205.12l0.852,82.332c0,0,4.937,0.699,15.531,0.808
			c10.573,0.109,18.655-2.316,18.655-2.316l0.087-83.184l-19.463-0.087C255.734,202.674,240.552,205.055,240.072,205.12
			L240.072,205.12z"/>
		<path style="fill-rule:evenodd;clip-rule:evenodd;fill:#A96259;" d="M240.181,214.972l0.131,13.303h34.864l0.022-13.303H240.181z
			 M240.465,242.387l0.131,13.325h34.536l0.022-13.325H240.465z M240.749,269.824l0.131,13.303h34.23v-13.303H240.749z"/>
		<path style="fill-rule:evenodd;clip-rule:evenodd;fill:#F8E8CF;" d="M226.31,209.336c0,0-15.138-4.434-22.391-11.709
			c-7.252-7.252-13.5-17.934-13.5-17.934l-2.01,5.439l-6.269-2.621l-0.393,5.046l-5.046-0.612l-0.393,5.243l-6.051-0.612
			c0,0,5.243,10.9,16.93,20.971c11.687,10.092,28.223,17.148,28.223,17.148L226.31,209.336z"/>
		<path style="fill-rule:evenodd;clip-rule:evenodd;fill:#A96259;" d="M213.356,204.094c-3.451-1.769-6.903-3.932-9.437-6.466
			c-1.835-1.835-3.604-3.888-5.243-5.942c-3.364,3.342-8.716,8.891-12.692,14.002l-2.6,3.342c1.18,1.18,2.447,2.359,3.801,3.517
			c4.085,3.517,8.738,6.663,13.085,9.262c3.888-5.265,9.153-12.408,11.315-15.313C212.264,205.579,212.853,204.793,213.356,204.094
			L213.356,204.094z"/>
		<path style="fill-rule:evenodd;clip-rule:evenodd;fill:#512B22;" d="M243.043,201.472l-0.153,86.199
			c0,0-28.485-8.388-33.925-30.954c-5.439-22.587,5.745-44.192,14.767-51.837c9.022-7.646,15.204-6.597,15.073-7.842
			C238.674,195.793,243.043,201.472,243.043,201.472L243.043,201.472z"/>
		<path style="fill-rule:evenodd;clip-rule:evenodd;fill:#512B22;" d="M274.084,200.467l-0.677,85.915
			c0,0,15.794-4.675,27.087-21.408c11.294-16.733,4.653-36.284,0.808-46.573c-3.823-10.289-16.318-19.354-16.318-19.354
			L274.084,200.467z"/>
		<path style="fill-rule:evenodd;clip-rule:evenodd;fill:#322A22;" d="M235.812,153.982c-1.333-1.223-8.192-1.813-8.192-1.813
			s0,15.116-1.42,22.172c-1.398,7.078-3.015,9.699-3.015,9.699s-0.612,28.005,3.43,36.284c4.041,8.257,31.849,20.163,31.849,20.163
			s24.794-13.303,30.648-21.582c5.854-8.257,3.233-36.087,3.233-36.087s-3.036-7.449-3.036-12.91c0-5.439-1.857-19.048-1.857-19.048
			l-7.58-7.471l-18.59-4.915c0,0-11.883,0.59-13.893,1.616C245.358,141.094,235.812,153.982,235.812,153.982L235.812,153.982z"/>
		<path style="fill-rule:evenodd;clip-rule:evenodd;fill:#B3BFBE;" d="M288.719,297.632c-0.59,0.393-5.527,5.832-4.828,7.558
			c0.699,1.704,2.709,6.051,0.502,8.366c-2.228,2.316-9.284,1.704-9.065-3.124c0.197-4.849,1.311-5.461,1.311-5.461
			s-0.808-1.398-2.119-1.813c-1.311-0.393-1.922-0.393-1.922-0.393s-2.818,5.133-1.813,9.874c1.005,4.74,4.434,7.667,10.595,7.777
			c6.138,0.087,8.956-6.772,9.065-9.896c0.087-3.124-2.119-5.024-1.813-5.745c0.306-0.699,3.32-4.434,3.32-4.434L288.719,297.632z"
			/>
		<path style="fill-rule:evenodd;clip-rule:evenodd;fill:#E2CC91;" d="M233.103,150.443l0.393,23.177c0,0,11.49-1.005,17.738-3.823
			c6.269-2.818,8.082-4.238,12.714-1.617c4.631,2.621,7.667,5.854,12.495,6.248c4.849,0.415,7.667-1.617,7.667-1.617
			s1.201-10.922-0.197-18.546c-1.42-7.602-4.041-10.879-4.041-10.879l-13.718-2.818l-17.126,0.808L233.103,150.443z"/>
		<path style="fill-rule:evenodd;clip-rule:evenodd;fill:#322A22;" d="M251.802,152.082l0.743-1.027c0,0,1.813-1.18,2.512-2.512
			c0.699-1.311,1.398-3.015,1.398-3.015l6.4,0.306c0,0-1.813,4.937-4.675,7.711c-2.883,2.774-5.461,3.823-5.461,3.823
			L251.802,152.082z"/>
		<polygon style="fill-rule:evenodd;clip-rule:evenodd;fill:#322A22;" points="237.254,164.184 233.431,169.011 233.496,173.621 
			235.681,173.402 239.482,168.05 		"/>
		<path style="fill-rule:evenodd;clip-rule:evenodd;fill:#FFFFFF;" d="M273.647,168.159c4.085,0,7.405-3.32,7.405-7.405
			c0-4.085-3.32-7.405-7.405-7.405s-7.405,3.32-7.405,7.405C266.241,164.839,269.562,168.159,273.647,168.159L273.647,168.159z"/>
		<path style="fill-rule:evenodd;clip-rule:evenodd;fill:#322A22;" d="M277.928,163.769c1.311,0,2.381-1.07,2.381-2.359
			c0-1.311-1.07-2.381-2.381-2.381c-1.311,0-2.359,1.07-2.359,2.381C275.569,162.698,276.618,163.769,277.928,163.769
			L277.928,163.769z"/>
		<path style="fill-rule:evenodd;clip-rule:evenodd;fill:#7E5844;" d="M256.739,167.373l-10.616,4.675c0,0-2.075,11.534-2.665,16.58
			c-0.612,5.024-3.735,8.257-6.357,6.837c-2.621-1.398,0.109-3.211,0.109-3.211s-3.342-2.621-6.357-0.502
			c-3.036,2.119-3.626,8.76,3.32,12.189c6.968,3.43,12.801-0.808,16.23-7.056c3.43-6.248,1.201-21.779,1.201-21.779l5.199-5.024
			l5.046-0.066l5.199,5.942c0,0-2.228,21.582,3.211,25.209c5.439,3.626,10.9,0.415,12.102-3.124
			c1.201-3.517-0.612-5.046-2.425-5.745c-1.813-0.699-2.709,0.612-2.709,0.612s1.616,0.699,1.616,2.403c0,1.726-3.845,2.84-4.849,0
			c-1.005-2.818-1.616-9.677-1.922-13.107c-0.306-3.408,0.481-8.781,0.481-8.781l-9.218-5.57L256.739,167.373z"/>
		<path style="fill-rule:evenodd;clip-rule:evenodd;fill:#B3BFBE;" d="M297.457,278.016c0,0-6.859-1.201-10.092,3.233
			c-6.444,8.869-3.211,16.318,2.905,20.075c3.932,2.403,9.197,2.337,13.74-0.175c6.029-3.342,5.439-12.604,5.439-12.604l-2.534-5.68
			L297.457,278.016z"/>
		<path style="fill-rule:evenodd;clip-rule:evenodd;fill:#322A22;" d="M293.831,278.059l15.619,10.485l11.796-9.371
			c0,0,0.502-2.316-1.114-2.709c-1.616-0.415-2.468,0.153-2.468,0.153s1.158-2.032-0.197-3.146
			c-1.376-1.092-3.539,0.153-3.539,0.153s1.464-2.556-0.24-4.063c-1.726-1.529-4.041,0.896-4.041,0.896s1.616-2.425-0.459-3.583
			c-2.053-1.158-3.43,1.311-3.43,1.311s0.481-1.944-0.568-3.036c-1.027-1.092-3.058,0.874-3.058,0.874s1.049-1.944-0.349-3.08
			c-1.398-1.158-1.857-1.005-1.857-1.005L293.831,278.059z"/>
		<path style="fill-rule:evenodd;clip-rule:evenodd;fill:#6CA272;" d="M222.618,150.138c-1.464-0.481-14.68-8.039-16.646-8.65
			c-1.966-0.59-2.25-0.655-2.25-0.655s5.09,3.845,9.218,6.663c4.129,2.818,8.716,3.932,8.716,3.932s-8.257,6.291-10.376,9.371
			c-2.119,3.08-2.883,6.903-2.621,6.597c0.24-0.306,8.913-10.988,11.381-12.998c2.468-2.01,2.883-2.84,2.883-2.84L222.618,150.138z"
			/>
		<path style="fill-rule:evenodd;clip-rule:evenodd;fill:#C3714C;" d="M254.882,169.994c0,0,0.786-9.481,6.641-10.682
			s5.745,2.468,5.658,6.663C267.072,170.147,259.317,175.237,254.882,169.994L254.882,169.994z"/>
		<path style="fill-rule:evenodd;clip-rule:evenodd;fill:#322A22;" d="M252.545,151.055c0,0,4.15,12.604,1.311,16.318
			c-2.818,3.735-12.298,6.16-15.116,3.233c-4.085-4.238-4.019-9.087-2.949-11.752C237.996,153.414,247.084,152.366,252.545,151.055
			L252.545,151.055z"/>
		<path style="fill-rule:evenodd;clip-rule:evenodd;fill:#E5D3A5;" d="M251.584,129.582c0,0,0.502-3.626-1.114-4.85
			c-1.616-1.201-5.155-3.015-5.352-8.148c-0.197-5.155,5.745-10.485,12.604-9.983c6.859,0.502,10.18,6.75,9.983,9.764
			c-0.197,3.036-2.228,6.553-4.041,6.968c-1.813,0.393-2.403,2.621-2.403,3.932c0,1.311-0.218,3.124-0.218,3.124
			S252.086,131.002,251.584,129.582L251.584,129.582z"/>
		<path style="fill-rule:evenodd;clip-rule:evenodd;fill:#43352F;" d="M252.676,120.538c1.18,0,2.141-1.311,2.141-2.905
			c0-1.616-0.961-2.905-2.141-2.905c-1.18,0-2.141,1.289-2.141,2.905C250.535,119.228,251.496,120.538,252.676,120.538
			L252.676,120.538z"/>
		<path style="fill-rule:evenodd;clip-rule:evenodd;fill:#43352F;" d="M260.802,120.538c1.18,0,2.141-1.311,2.141-2.905
			c0-1.616-0.961-2.905-2.141-2.905c-1.18,0-2.141,1.289-2.141,2.905C258.661,119.228,259.623,120.538,260.802,120.538
			L260.802,120.538z"/>
		<path style="fill-rule:evenodd;clip-rule:evenodd;fill:#43352F;" d="M256.542,120.407c0,0-2.053,1.595-1.267,2.556
			c0.786,0.939,1.092-1.398,1.092-1.398s-0.153,1.398,1.136,1.398S256.542,120.407,256.542,120.407L256.542,120.407z"/>
		<path style="fill-rule:evenodd;clip-rule:evenodd;fill:#85B787;" d="M237.538,144.305l-3.08,0.415c0,0-1.158-3.648-7.602-2.731
			c-6.444,0.896-6.947,4.718-6.553,6.947c0.415,2.206,2.512,8.366,6.947,8.366c4.456,0,9.481-7.362,9.481-7.362L237.538,144.305z"/>
		<path style="fill-rule:evenodd;clip-rule:evenodd;fill:#98C596;" d="M236.729,149.941c0,0,12.386-5.046,27.022-2.971
			c14.614,2.075,23.701,3.888,23.701,3.888l1.9-4.107c0,0-11.49-15.75-30.539-14.352c-19.048,1.42-24.794,11.294-24.794,11.294
			L236.729,149.941z"/>
	</g>
</g>
<g id="DESIGNED_BY_FREEPIK">
	<g id="XMLID_76_">
		<g id="XMLID_929_">
			<path id="XMLID_958_" style="fill:#3F3F3F;" d="M181.087,466.63c-0.246,0-0.435,0.085-0.567,0.255
				c-0.133,0.17-0.199,0.421-0.199,0.753v2.392c-0.305-0.331-0.617-0.579-0.937-0.739c-0.321-0.159-0.715-0.24-1.181-0.24
				c-0.807,0-1.458,0.283-1.953,0.848c-0.494,0.566-0.742,1.356-0.742,2.369c0,0.478,0.063,0.923,0.187,1.335
				c0.124,0.412,0.307,0.77,0.549,1.074c0.241,0.304,0.527,0.539,0.857,0.704c0.33,0.164,0.69,0.246,1.078,0.246
				c0.293,0,0.563-0.04,0.809-0.122c0.248-0.081,0.477-0.2,0.689-0.356c0.212-0.156,0.427-0.359,0.644-0.608v0.16
				c0,0.297,0.072,0.525,0.217,0.685c0.145,0.161,0.328,0.24,0.549,0.24c0.226,0,0.409-0.078,0.552-0.231
				c0.143-0.154,0.214-0.386,0.214-0.694v-7.146c0-0.305-0.066-0.534-0.199-0.691C181.521,466.709,181.332,466.63,181.087,466.63z
				 M180.021,473.471c-0.14,0.306-0.328,0.533-0.563,0.682c-0.236,0.149-0.496,0.223-0.781,0.223c-0.281,0-0.54-0.079-0.777-0.236
				c-0.237-0.155-0.424-0.388-0.561-0.696c-0.136-0.309-0.204-0.682-0.204-1.122c0-0.416,0.063-0.78,0.193-1.095
				c0.128-0.315,0.309-0.556,0.543-0.724c0.233-0.168,0.499-0.253,0.795-0.253c0.285,0,0.547,0.082,0.786,0.246
				c0.239,0.165,0.429,0.402,0.569,0.712c0.141,0.311,0.211,0.682,0.211,1.114C180.232,472.78,180.162,473.164,180.021,473.471z"/>
			<path id="XMLID_954_" style="fill:#3F3F3F;" d="M188.452,472.551c0.233-0.122,0.35-0.385,0.35-0.793
				c0-0.438-0.113-0.87-0.339-1.294c-0.225-0.423-0.564-0.769-1.018-1.035c-0.453-0.268-0.996-0.4-1.628-0.4
				c-0.487,0-0.93,0.078-1.33,0.234c-0.4,0.157-0.736,0.381-1.009,0.674c-0.273,0.293-0.48,0.644-0.623,1.054
				c-0.143,0.409-0.214,0.853-0.214,1.332c0,1.017,0.289,1.822,0.867,2.415c0.577,0.592,1.387,0.89,2.428,0.89
				c0.455,0,0.858-0.059,1.207-0.178c0.352-0.12,0.641-0.268,0.873-0.448c0.231-0.18,0.404-0.368,0.519-0.564
				c0.115-0.197,0.172-0.367,0.172-0.514c0-0.166-0.052-0.294-0.155-0.386c-0.102-0.09-0.237-0.137-0.403-0.137
				c-0.154,0-0.273,0.035-0.356,0.107c-0.202,0.19-0.366,0.34-0.492,0.451c-0.126,0.111-0.265,0.216-0.416,0.312
				c-0.15,0.098-0.305,0.167-0.466,0.214c-0.16,0.045-0.337,0.067-0.531,0.067c-0.289,0-0.553-0.07-0.792-0.213
				c-0.239-0.142-0.432-0.354-0.576-0.635c-0.145-0.281-0.218-0.605-0.222-0.973h3.168
				C187.89,472.732,188.219,472.671,188.452,472.551z M184.297,471.812c0.055-0.546,0.212-0.959,0.472-1.238
				c0.259-0.279,0.59-0.418,0.994-0.418c0.424,0,0.764,0.137,1.024,0.412c0.259,0.275,0.409,0.69,0.448,1.244H184.297z"/>
			<path id="XMLID_952_" style="fill:#3F3F3F;" d="M193.879,472.114c-0.319-0.17-0.729-0.316-1.231-0.439
				c-0.425-0.103-0.756-0.19-0.997-0.261c-0.242-0.07-0.434-0.161-0.577-0.27c-0.142-0.109-0.213-0.248-0.213-0.419
				c0-0.186,0.096-0.341,0.29-0.465c0.194-0.126,0.437-0.187,0.73-0.187c0.286,0,0.511,0.047,0.677,0.142
				c0.166,0.095,0.31,0.222,0.433,0.38c0.151,0.19,0.284,0.332,0.401,0.427c0.116,0.095,0.258,0.143,0.424,0.143
				c0.231,0,0.408-0.06,0.532-0.178c0.124-0.119,0.186-0.272,0.186-0.457c0-0.171-0.058-0.345-0.175-0.523
				c-0.116-0.178-0.286-0.34-0.51-0.486c-0.223-0.146-0.502-0.264-0.837-0.35c-0.333-0.088-0.71-0.131-1.13-0.131
				c-0.535,0-0.99,0.085-1.367,0.259c-0.378,0.172-0.665,0.403-0.859,0.691c-0.194,0.289-0.291,0.596-0.291,0.92
				c0,0.364,0.105,0.671,0.315,0.92c0.21,0.249,0.489,0.45,0.84,0.602c0.35,0.153,0.804,0.298,1.362,0.436
				c0.494,0.12,0.849,0.244,1.065,0.375c0.216,0.131,0.323,0.338,0.323,0.622c0,0.187-0.104,0.352-0.311,0.497
				c-0.208,0.144-0.474,0.216-0.798,0.216c-0.4,0-0.715-0.071-0.947-0.213c-0.231-0.143-0.431-0.358-0.597-0.647
				c-0.082-0.15-0.17-0.267-0.261-0.35c-0.091-0.082-0.221-0.124-0.391-0.124c-0.194,0-0.355,0.064-0.481,0.19
				c-0.128,0.126-0.19,0.278-0.19,0.456c0,0.27,0.099,0.537,0.297,0.805c0.198,0.266,0.505,0.489,0.92,0.667
				c0.415,0.178,0.914,0.267,1.495,0.267c0.61,0,1.127-0.082,1.552-0.246c0.425-0.164,0.747-0.406,0.964-0.724
				c0.218-0.319,0.326-0.702,0.326-1.149c0-0.297-0.082-0.56-0.246-0.792C194.438,472.485,194.197,472.284,193.879,472.114z"/>
			<path id="XMLID_950_" style="fill:#3F3F3F;" d="M196.486,469.04c-0.237,0-0.43,0.081-0.579,0.243
				c-0.149,0.162-0.222,0.404-0.222,0.724v4.635c0,0.317,0.073,0.56,0.222,0.73c0.148,0.17,0.341,0.255,0.579,0.255
				c0.238,0,0.433-0.083,0.588-0.249c0.154-0.166,0.231-0.412,0.231-0.737v-4.682c0-0.289-0.077-0.514-0.231-0.677
				C196.919,469.121,196.724,469.04,196.486,469.04z"/>
			<path id="XMLID_949_" style="fill:#3F3F3F;" d="M196.504,466.701c-0.217,0-0.409,0.073-0.573,0.223
				c-0.164,0.149-0.246,0.337-0.246,0.567c0,0.254,0.08,0.45,0.24,0.588c0.16,0.138,0.353,0.208,0.579,0.208
				c0.217,0,0.405-0.071,0.563-0.211c0.158-0.14,0.238-0.335,0.238-0.585c0-0.258-0.081-0.453-0.243-0.588
				C196.9,466.768,196.714,466.701,196.504,466.701z"/>
			<path id="XMLID_945_" style="fill:#3F3F3F;" d="M203.626,469.04c-0.217,0-0.395,0.077-0.535,0.231
				c-0.139,0.155-0.208,0.372-0.208,0.653v0.22c-0.289-0.376-0.602-0.652-0.937-0.829c-0.337-0.175-0.735-0.264-1.194-0.264
				c-0.384,0-0.736,0.068-1.056,0.204c-0.32,0.137-0.604,0.34-0.849,0.609c-0.245,0.269-0.433,0.599-0.566,0.992
				c-0.133,0.391-0.199,0.83-0.199,1.317c0,0.653,0.109,1.228,0.327,1.727c0.217,0.499,0.529,0.886,0.934,1.163
				c0.406,0.277,0.88,0.416,1.422,0.416c0.45,0,0.84-0.091,1.166-0.273c0.327-0.182,0.615-0.447,0.864-0.796
				c-0.008,0.531-0.02,0.915-0.035,1.155c-0.016,0.24-0.07,0.464-0.164,0.673c-0.093,0.21-0.255,0.374-0.486,0.49
				c-0.231,0.117-0.557,0.175-0.977,0.175c-0.205,0-0.388-0.02-0.546-0.056c-0.159-0.038-0.294-0.095-0.406-0.171
				c-0.112-0.078-0.216-0.17-0.309-0.28c-0.093-0.109-0.183-0.217-0.27-0.324c-0.178-0.209-0.386-0.314-0.624-0.314
				c-0.189,0-0.352,0.062-0.486,0.187c-0.135,0.124-0.202,0.285-0.202,0.483c0,0.262,0.119,0.516,0.356,0.763
				c0.238,0.247,0.576,0.449,1.014,0.605c0.439,0.156,0.938,0.234,1.496,0.234c0.609,0,1.119-0.061,1.528-0.184
				c0.41-0.122,0.741-0.311,0.994-0.563c0.253-0.254,0.438-0.574,0.552-0.961c0.115-0.389,0.173-0.851,0.173-1.389v-4.706
				c0-0.384-0.051-0.678-0.155-0.882C204.146,469.142,203.938,469.04,203.626,469.04z M202.599,473.405
				c-0.151,0.29-0.345,0.508-0.586,0.653c-0.239,0.144-0.493,0.217-0.762,0.217c-0.455,0-0.826-0.168-1.113-0.505
				c-0.287-0.336-0.43-0.834-0.43-1.49c0-0.649,0.139-1.15,0.418-1.502s0.649-0.529,1.113-0.529c0.475,0,0.857,0.184,1.148,0.553
				c0.291,0.367,0.436,0.882,0.436,1.543C202.825,472.762,202.749,473.114,202.599,473.405z"/>
			<path id="XMLID_944_" style="fill:#3F3F3F;" d="M210.978,470.108c-0.165-0.339-0.417-0.602-0.753-0.788
				c-0.337-0.186-0.718-0.28-1.146-0.28c-0.439,0-0.828,0.088-1.166,0.264c-0.339,0.176-0.65,0.452-0.935,0.828v-0.196
				c0-0.193-0.034-0.358-0.104-0.493c-0.07-0.134-0.162-0.234-0.276-0.302c-0.115-0.068-0.244-0.101-0.387-0.101
				c-0.233,0-0.417,0.076-0.552,0.228c-0.134,0.152-0.201,0.383-0.201,0.692v4.682c0,0.317,0.076,0.56,0.226,0.73
				c0.15,0.17,0.342,0.255,0.576,0.255c0.241,0,0.438-0.082,0.59-0.246c0.152-0.164,0.228-0.411,0.228-0.74v-2.03
				c0-0.661,0.04-1.111,0.119-1.353c0.11-0.3,0.284-0.537,0.522-0.71c0.237-0.173,0.5-0.258,0.789-0.258
				c0.444,0,0.74,0.142,0.888,0.425c0.148,0.283,0.223,0.691,0.223,1.225v2.7c0,0.317,0.074,0.56,0.226,0.73
				c0.15,0.17,0.345,0.255,0.587,0.255c0.238,0,0.431-0.083,0.579-0.249c0.149-0.166,0.223-0.412,0.223-0.737v-3.015
				c0-0.356-0.017-0.648-0.048-0.878C211.155,470.52,211.085,470.306,210.978,470.108z"/>
			<path id="XMLID_939_" style="fill:#3F3F3F;" d="M217.821,472.551c0.234-0.122,0.35-0.385,0.35-0.793
				c0-0.438-0.114-0.87-0.338-1.294c-0.226-0.423-0.565-0.769-1.019-1.035c-0.453-0.268-0.995-0.4-1.628-0.4
				c-0.487,0-0.93,0.078-1.33,0.234c-0.4,0.157-0.736,0.381-1.009,0.674c-0.273,0.293-0.481,0.644-0.624,1.054
				c-0.142,0.409-0.214,0.853-0.214,1.332c0,1.017,0.289,1.822,0.867,2.415c0.578,0.592,1.387,0.89,2.427,0.89
				c0.455,0,0.858-0.059,1.208-0.178c0.35-0.12,0.64-0.268,0.871-0.448c0.232-0.18,0.405-0.368,0.52-0.564
				c0.115-0.197,0.172-0.367,0.172-0.514c0-0.166-0.051-0.294-0.154-0.386c-0.103-0.09-0.238-0.137-0.404-0.137
				c-0.154,0-0.273,0.035-0.356,0.107c-0.201,0.19-0.366,0.34-0.492,0.451c-0.128,0.111-0.266,0.216-0.416,0.312
				c-0.151,0.098-0.306,0.167-0.466,0.214c-0.161,0.045-0.338,0.067-0.532,0.067c-0.289,0-0.553-0.07-0.792-0.213
				c-0.239-0.142-0.431-0.354-0.576-0.635c-0.145-0.281-0.218-0.605-0.223-0.973h3.169
				C217.26,472.732,217.588,472.671,217.821,472.551z M213.667,471.812c0.056-0.546,0.212-0.959,0.471-1.238
				c0.259-0.279,0.591-0.418,0.995-0.418c0.424,0,0.765,0.137,1.024,0.412c0.259,0.275,0.409,0.69,0.448,1.244H213.667z"/>
			<path id="XMLID_936_" style="fill:#3F3F3F;" d="M224.207,466.63c-0.245,0-0.434,0.085-0.567,0.255
				c-0.132,0.17-0.199,0.421-0.199,0.753v2.392c-0.304-0.331-0.616-0.579-0.937-0.739c-0.32-0.159-0.714-0.24-1.181-0.24
				c-0.807,0-1.458,0.283-1.953,0.848c-0.495,0.566-0.741,1.356-0.741,2.369c0,0.478,0.062,0.923,0.187,1.335
				c0.124,0.412,0.308,0.77,0.549,1.074c0.241,0.304,0.527,0.539,0.857,0.704c0.33,0.164,0.689,0.246,1.077,0.246
				c0.293,0,0.563-0.04,0.81-0.122c0.247-0.081,0.476-0.2,0.688-0.356c0.211-0.156,0.426-0.359,0.643-0.608v0.16
				c0,0.297,0.073,0.525,0.217,0.685c0.145,0.161,0.328,0.24,0.549,0.24c0.226,0,0.41-0.078,0.552-0.231
				c0.143-0.154,0.214-0.386,0.214-0.694v-7.146c0-0.305-0.066-0.534-0.199-0.691C224.641,466.709,224.452,466.63,224.207,466.63z
				 M223.141,473.471c-0.14,0.306-0.328,0.533-0.564,0.682c-0.236,0.149-0.495,0.223-0.781,0.223c-0.281,0-0.539-0.079-0.776-0.236
				c-0.238-0.155-0.425-0.388-0.561-0.696c-0.137-0.309-0.205-0.682-0.205-1.122c0-0.416,0.064-0.78,0.193-1.095
				c0.129-0.315,0.31-0.556,0.543-0.724c0.233-0.168,0.499-0.253,0.795-0.253c0.285,0,0.547,0.082,0.787,0.246
				c0.239,0.165,0.43,0.402,0.57,0.712c0.14,0.311,0.211,0.682,0.211,1.114C223.352,472.78,223.282,473.164,223.141,473.471z"/>
			<path id="XMLID_933_" style="fill:#3F3F3F;" d="M233.586,469.434c-0.407-0.254-0.878-0.382-1.416-0.382
				c-0.467,0-0.859,0.084-1.175,0.252c-0.317,0.168-0.627,0.411-0.932,0.727v-2.475c0-0.297-0.068-0.524-0.202-0.685
				c-0.134-0.16-0.326-0.24-0.575-0.24c-0.237,0-0.423,0.084-0.555,0.252c-0.132,0.168-0.198,0.416-0.198,0.744v7.075
				c0,0.305,0.068,0.535,0.205,0.692c0.136,0.156,0.319,0.234,0.549,0.234c0.226,0,0.412-0.078,0.558-0.234
				c0.146-0.157,0.22-0.388,0.22-0.692v-0.16c0.178,0.205,0.322,0.361,0.43,0.463c0.109,0.103,0.241,0.203,0.395,0.3
				c0.154,0.098,0.341,0.175,0.561,0.234c0.22,0.06,0.454,0.089,0.704,0.089c0.407,0,0.781-0.082,1.119-0.246
				c0.338-0.164,0.626-0.397,0.864-0.698c0.237-0.3,0.418-0.656,0.543-1.065c0.124-0.41,0.187-0.859,0.187-1.35
				c0-0.665-0.112-1.241-0.336-1.725C234.305,470.06,233.991,469.69,233.586,469.434z M232.796,473.845
				c-0.295,0.355-0.646,0.531-1.053,0.531c-0.479,0-0.866-0.174-1.161-0.52c-0.295-0.346-0.442-0.841-0.442-1.487
				c0-0.439,0.069-0.818,0.208-1.136c0.138-0.319,0.328-0.562,0.57-0.73c0.24-0.168,0.516-0.253,0.825-0.253
				c0.3,0,0.564,0.085,0.79,0.253c0.225,0.168,0.399,0.406,0.522,0.715c0.123,0.308,0.184,0.677,0.184,1.104
				C233.238,472.983,233.09,473.49,232.796,473.845z"/>
			<path id="XMLID_931_" style="fill:#3F3F3F;" d="M240.529,469.138c-0.112-0.066-0.229-0.098-0.353-0.098
				c-0.171,0-0.303,0.03-0.395,0.09c-0.093,0.058-0.181,0.173-0.264,0.344c-0.083,0.17-0.176,0.406-0.279,0.706l-1.3,3.71
				l-1.371-3.988c-0.091-0.277-0.195-0.489-0.314-0.638c-0.119-0.148-0.295-0.223-0.528-0.223c-0.135,0-0.264,0.035-0.389,0.107
				c-0.124,0.071-0.222,0.166-0.294,0.285c-0.071,0.118-0.107,0.246-0.107,0.385c0,0.13,0.062,0.341,0.184,0.629l1.994,5.022
				l-0.148,0.363c-0.111,0.265-0.209,0.466-0.294,0.601c-0.085,0.138-0.181,0.234-0.287,0.289c-0.107,0.056-0.254,0.084-0.44,0.084
				c-0.074,0-0.163-0.012-0.266-0.035c-0.083-0.024-0.168-0.037-0.256-0.037c-0.221,0-0.388,0.051-0.5,0.152
				c-0.113,0.101-0.17,0.245-0.17,0.43c0,0.273,0.118,0.461,0.356,0.565c0.237,0.102,0.593,0.154,1.068,0.154
				c0.487,0,0.873-0.074,1.161-0.223c0.287-0.148,0.517-0.361,0.691-0.638c0.175-0.277,0.353-0.659,0.535-1.145l2.113-5.532
				c0.051-0.142,0.095-0.283,0.13-0.421c0.037-0.139,0.061-0.246,0.078-0.321c0-0.123-0.032-0.239-0.093-0.35
				C240.729,469.291,240.642,469.203,240.529,469.138z"/>
		</g>
		<g id="XMLID_365_">
			<g id="XMLID_380_">
				<path id="XMLID_928_" style="fill:#3F3F3F;" d="M262.93,466.626c-0.533,0-0.954,0.069-1.26,0.204
					c-0.307,0.137-0.527,0.354-0.654,0.652c-0.129,0.301-0.191,0.702-0.191,1.211v0.487h-0.387c-0.543,0-0.815,0.192-0.815,0.582
					c0,0.174,0.066,0.316,0.197,0.423c0.132,0.111,0.315,0.164,0.558,0.164h0.447v4.294c0,0.319,0.074,0.563,0.227,0.73
					c0.154,0.17,0.344,0.254,0.574,0.254c0.243,0,0.438-0.084,0.589-0.254c0.156-0.167,0.231-0.411,0.231-0.73v-4.294h0.395
					c0.29,0,0.517-0.035,0.68-0.108c0.166-0.071,0.245-0.24,0.245-0.502c0-0.374-0.306-0.56-0.926-0.56h-0.395v-0.386
					c0-0.322,0.043-0.568,0.122-0.74c0.087-0.172,0.273-0.259,0.566-0.259c0.107,0,0.241,0.014,0.389,0.034
					c0.156,0.026,0.267,0.038,0.329,0.038c0.134,0,0.252-0.054,0.348-0.16c0.101-0.108,0.15-0.236,0.15-0.384
					C264.35,466.856,263.879,466.626,262.93,466.626z"/>
				<path id="XMLID_926_" style="fill:#3F3F3F;" d="M268.089,469.292c-0.32-0.171-0.647-0.255-0.99-0.255
					c-0.342,0-0.611,0.084-0.818,0.255c-0.203,0.171-0.4,0.421-0.592,0.755c-0.014-0.334-0.08-0.584-0.198-0.755
					c-0.119-0.171-0.313-0.255-0.583-0.255c-0.525,0-0.788,0.364-0.788,1.093v4.513c0,0.323,0.078,0.569,0.225,0.733
					c0.15,0.168,0.341,0.25,0.579,0.25c0.237,0,0.432-0.081,0.586-0.247c0.151-0.163,0.234-0.41,0.234-0.737v-1.355
					c0-0.486,0.014-0.899,0.044-1.239c0.034-0.336,0.09-0.63,0.17-0.878c0.083-0.243,0.201-0.425,0.353-0.553
					c0.15-0.122,0.345-0.186,0.582-0.186c0.171,0,0.373,0.037,0.602,0.108c0.226,0.073,0.371,0.112,0.433,0.112
					c0.157,0,0.304-0.064,0.441-0.195c0.135-0.126,0.204-0.292,0.204-0.488C268.571,469.69,268.411,469.463,268.089,469.292z"/>
				<path id="XMLID_922_" style="fill:#3F3F3F;" d="M274.176,472.549c0.233-0.122,0.351-0.386,0.351-0.792
					c0-0.441-0.113-0.87-0.339-1.296c-0.222-0.423-0.566-0.77-1.018-1.034c-0.454-0.27-0.997-0.403-1.629-0.403
					c-0.488,0-0.931,0.078-1.33,0.233c-0.401,0.156-0.735,0.38-1.007,0.674c-0.276,0.295-0.484,0.643-0.624,1.055
					c-0.144,0.41-0.217,0.855-0.217,1.333c0,1.017,0.292,1.823,0.87,2.418c0.577,0.593,1.385,0.888,2.429,0.888
					c0.453,0,0.857-0.06,1.207-0.179c0.349-0.117,0.639-0.268,0.874-0.446c0.232-0.182,0.405-0.368,0.522-0.566
					c0.112-0.195,0.167-0.365,0.167-0.512c0-0.167-0.048-0.293-0.152-0.386c-0.105-0.092-0.238-0.139-0.406-0.139
					c-0.152,0-0.271,0.038-0.355,0.109c-0.202,0.189-0.367,0.34-0.494,0.449c-0.127,0.113-0.264,0.217-0.415,0.312
					c-0.15,0.097-0.307,0.17-0.466,0.213c-0.16,0.048-0.336,0.069-0.531,0.069c-0.29,0-0.552-0.069-0.793-0.212
					c-0.24-0.145-0.431-0.356-0.578-0.635c-0.144-0.281-0.216-0.607-0.222-0.974h3.171
					C273.615,472.73,273.943,472.67,274.176,472.549z M270.021,471.809c0.054-0.546,0.213-0.957,0.472-1.236
					c0.259-0.28,0.591-0.417,0.995-0.417c0.426,0,0.764,0.136,1.025,0.412c0.26,0.273,0.407,0.688,0.446,1.241H270.021z"/>
				<path id="XMLID_919_" style="fill:#3F3F3F;" d="M280.916,472.549c0.231-0.122,0.351-0.386,0.351-0.792
					c0-0.441-0.116-0.87-0.34-1.296c-0.222-0.423-0.563-0.77-1.013-1.034c-0.46-0.27-1.003-0.403-1.633-0.403
					c-0.486,0-0.932,0.078-1.33,0.233c-0.401,0.156-0.737,0.38-1.009,0.674c-0.273,0.295-0.481,0.643-0.622,1.055
					c-0.145,0.41-0.217,0.855-0.217,1.333c0,1.017,0.29,1.823,0.868,2.418c0.58,0.593,1.387,0.888,2.429,0.888
					c0.453,0,0.86-0.06,1.208-0.179c0.347-0.117,0.641-0.268,0.872-0.446c0.234-0.182,0.408-0.368,0.519-0.566
					c0.116-0.195,0.171-0.365,0.171-0.512c0-0.167-0.047-0.293-0.15-0.386c-0.104-0.092-0.239-0.139-0.406-0.139
					c-0.151,0-0.27,0.038-0.355,0.109c-0.203,0.189-0.368,0.34-0.492,0.449c-0.128,0.113-0.264,0.217-0.415,0.312
					c-0.153,0.097-0.307,0.17-0.469,0.213c-0.157,0.048-0.336,0.069-0.528,0.069c-0.291,0-0.555-0.069-0.795-0.212
					c-0.238-0.145-0.431-0.356-0.575-0.635c-0.143-0.281-0.218-0.607-0.222-0.974h3.17
					C280.354,472.73,280.682,472.67,280.916,472.549z M276.762,471.809c0.053-0.546,0.211-0.957,0.469-1.236
					c0.261-0.28,0.592-0.417,0.995-0.417c0.425,0,0.763,0.136,1.026,0.412c0.257,0.273,0.407,0.688,0.447,1.241H276.762z"/>
				<path id="XMLID_390_" style="fill:#3F3F3F;" d="M286.926,469.434c-0.42-0.256-0.882-0.386-1.379-0.386
					c-0.415,0-0.79,0.089-1.114,0.267c-0.331,0.176-0.649,0.452-0.953,0.827v-0.195c0-0.296-0.071-0.519-0.218-0.677
					c-0.143-0.156-0.329-0.234-0.56-0.234c-0.233,0-0.418,0.078-0.553,0.228c-0.134,0.155-0.2,0.382-0.2,0.692v6.995
					c0,0.355,0.051,0.62,0.146,0.807c0.102,0.183,0.301,0.275,0.607,0.275c0.518,0,0.777-0.359,0.777-1.069v-2.433
					c0.287,0.358,0.586,0.634,0.901,0.816c0.314,0.187,0.704,0.279,1.165,0.279c0.385,0,0.741-0.076,1.079-0.227
					c0.334-0.153,0.622-0.372,0.868-0.654c0.245-0.283,0.441-0.632,0.58-1.05c0.14-0.419,0.21-0.878,0.21-1.376
					c0-0.677-0.122-1.261-0.366-1.758C287.675,470.069,287.346,469.693,286.926,469.434z M286.451,473.437
					c-0.137,0.313-0.32,0.546-0.552,0.704c-0.229,0.154-0.48,0.233-0.748,0.233c-0.454,0-0.828-0.179-1.133-0.536
					c-0.306-0.358-0.459-0.862-0.459-1.504c0-0.686,0.154-1.204,0.462-1.558c0.306-0.35,0.684-0.527,1.13-0.527
					c0.281,0,0.541,0.084,0.77,0.248c0.229,0.163,0.411,0.397,0.541,0.705c0.13,0.306,0.196,0.674,0.196,1.101
					C286.658,472.745,286.588,473.123,286.451,473.437z"/>
				<path id="XMLID_389_" style="fill:#3F3F3F;" d="M289.9,469.037c-0.238,0-0.428,0.079-0.58,0.245
					c-0.146,0.162-0.222,0.403-0.222,0.721v4.642c0,0.313,0.076,0.555,0.222,0.729c0.152,0.17,0.342,0.254,0.58,0.254
					c0.238,0,0.432-0.082,0.588-0.25c0.154-0.165,0.231-0.41,0.231-0.732v-4.688c0-0.287-0.078-0.513-0.231-0.675
					C290.332,469.116,290.138,469.037,289.9,469.037z"/>
				<path id="XMLID_388_" style="fill:#3F3F3F;" d="M289.917,466.696c-0.217,0-0.408,0.076-0.571,0.223
					c-0.166,0.149-0.248,0.339-0.248,0.568c0,0.253,0.081,0.447,0.242,0.586c0.159,0.138,0.35,0.209,0.577,0.209
					c0.22,0,0.408-0.071,0.566-0.209c0.157-0.14,0.236-0.335,0.236-0.585c0-0.257-0.082-0.454-0.244-0.591
					C290.314,466.763,290.13,466.696,289.917,466.696z"/>
				<path id="XMLID_387_" style="fill:#3F3F3F;" d="M297.258,474.066l-1.662-2.614l0.86-0.789c0.438-0.396,0.659-0.714,0.659-0.951
					c0-0.192-0.068-0.354-0.2-0.483c-0.139-0.128-0.306-0.193-0.51-0.193c-0.168,0-0.313,0.043-0.431,0.13
					c-0.121,0.086-0.29,0.251-0.517,0.486l-1.822,1.914v-3.933c0-0.329-0.075-0.582-0.221-0.751
					c-0.148-0.171-0.344-0.257-0.593-0.257c-0.255,0-0.456,0.093-0.596,0.283c-0.135,0.189-0.207,0.462-0.207,0.821v6.913
					c0,0.323,0.073,0.569,0.215,0.733c0.141,0.168,0.339,0.25,0.588,0.25c0.213,0,0.406-0.084,0.566-0.254
					c0.165-0.167,0.248-0.406,0.248-0.718v-1.291l0.88-0.83l1.427,2.353c0.181,0.278,0.329,0.471,0.436,0.58
					c0.106,0.109,0.26,0.16,0.458,0.16c0.226,0,0.413-0.073,0.553-0.221c0.142-0.151,0.214-0.352,0.214-0.61
					c0-0.089-0.029-0.19-0.082-0.289C297.469,474.406,297.379,474.262,297.258,474.066z"/>
				<path id="XMLID_386_" style="fill:#3F3F3F;" d="M299.45,473.84c-0.25,0-0.458,0.087-0.63,0.261
					c-0.17,0.173-0.256,0.381-0.256,0.622c0,0.287,0.09,0.51,0.268,0.665c0.179,0.159,0.389,0.238,0.634,0.238
					c0.237,0,0.444-0.079,0.624-0.241c0.174-0.157,0.264-0.379,0.264-0.662c0-0.243-0.089-0.454-0.264-0.626
					C299.909,473.927,299.698,473.84,299.45,473.84z"/>
				<path id="XMLID_385_" style="fill:#3F3F3F;" d="M306.835,472.914c-0.167,0-0.308,0.054-0.422,0.156
					c-0.113,0.104-0.219,0.245-0.318,0.427c-0.177,0.309-0.381,0.538-0.616,0.689c-0.231,0.15-0.509,0.225-0.835,0.225
					c-0.24,0-0.463-0.045-0.665-0.141c-0.201-0.093-0.372-0.229-0.516-0.409c-0.143-0.18-0.252-0.398-0.325-0.652
					c-0.075-0.256-0.114-0.537-0.114-0.842c0-0.646,0.147-1.161,0.439-1.533c0.294-0.375,0.682-0.561,1.158-0.561
					c0.333,0,0.607,0.075,0.821,0.227c0.219,0.148,0.424,0.375,0.622,0.674c0.109,0.158,0.209,0.269,0.299,0.339
					c0.09,0.068,0.201,0.104,0.338,0.104c0.202,0,0.377-0.068,0.524-0.203c0.143-0.135,0.214-0.3,0.214-0.492
					c0-0.192-0.063-0.397-0.192-0.617c-0.128-0.218-0.314-0.423-0.556-0.62c-0.245-0.192-0.54-0.352-0.89-0.474
					c-0.353-0.123-0.737-0.184-1.157-0.184c-0.674,0-1.26,0.139-1.747,0.419c-0.486,0.279-0.859,0.674-1.113,1.183
					c-0.259,0.511-0.387,1.098-0.387,1.765c0,0.981,0.281,1.764,0.841,2.349c0.562,0.582,1.344,0.876,2.348,0.876
					c0.469,0,0.893-0.065,1.269-0.192c0.377-0.126,0.688-0.295,0.934-0.502c0.249-0.207,0.434-0.425,0.553-0.656
					c0.121-0.229,0.182-0.446,0.182-0.646c0-0.169-0.066-0.331-0.198-0.481C307.198,472.99,307.033,472.914,306.835,472.914z"/>
				<path id="XMLID_382_" style="fill:#3F3F3F;" d="M313.647,469.95c-0.288-0.29-0.629-0.517-1.027-0.674
					c-0.4-0.161-0.846-0.239-1.336-0.239c-0.483,0-0.924,0.078-1.326,0.234c-0.399,0.158-0.737,0.38-1.019,0.669
					c-0.281,0.288-0.498,0.637-0.649,1.045c-0.146,0.408-0.224,0.858-0.224,1.349c0,0.485,0.076,0.929,0.219,1.332
					c0.152,0.401,0.369,0.75,0.657,1.048c0.285,0.292,0.627,0.521,1.016,0.676c0.392,0.159,0.835,0.239,1.326,0.239
					c0.492,0,0.937-0.08,1.336-0.234c0.394-0.158,0.735-0.382,1.02-0.675c0.286-0.291,0.502-0.641,0.656-1.05
					c0.146-0.408,0.222-0.855,0.222-1.336c0-0.489-0.075-0.932-0.221-1.339C314.148,470.593,313.933,470.246,313.647,469.95z
					 M312.455,473.866c-0.29,0.372-0.682,0.557-1.171,0.557c-0.324,0-0.605-0.086-0.846-0.253c-0.24-0.168-0.424-0.41-0.553-0.729
					c-0.129-0.317-0.193-0.684-0.193-1.108c0-0.428,0.066-0.803,0.197-1.125c0.131-0.321,0.314-0.563,0.556-0.727
					c0.242-0.164,0.522-0.246,0.84-0.246c0.489,0,0.881,0.182,1.171,0.555c0.289,0.367,0.436,0.881,0.436,1.543
					C312.891,472.984,312.744,473.496,312.455,473.866z"/>
				<path id="XMLID_381_" style="fill:#3F3F3F;" d="M323.569,469.31c-0.32-0.173-0.705-0.262-1.146-0.262
					c-0.381,0-0.726,0.081-1.039,0.241c-0.313,0.161-0.606,0.408-0.881,0.738c-0.192-0.326-0.431-0.572-0.725-0.735
					c-0.292-0.162-0.641-0.243-1.048-0.243c-0.394,0-0.747,0.079-1.07,0.241c-0.319,0.156-0.619,0.403-0.902,0.738v-0.153
					c0-0.261-0.074-0.466-0.222-0.616c-0.15-0.145-0.334-0.222-0.557-0.222c-0.227,0-0.412,0.078-0.555,0.239
					c-0.14,0.157-0.21,0.389-0.21,0.694v4.636c0,0.336,0.078,0.591,0.235,0.765c0.156,0.171,0.357,0.258,0.604,0.258
					c0.248,0,0.447-0.087,0.603-0.258c0.15-0.173,0.226-0.428,0.226-0.765v-2.188c0-0.684,0.086-1.206,0.253-1.566
					c0.168-0.369,0.516-0.55,1.048-0.55c0.264,0,0.459,0.072,0.582,0.22c0.121,0.142,0.198,0.331,0.226,0.552
					c0.027,0.226,0.04,0.544,0.04,0.953v2.581c0,0.341,0.078,0.594,0.232,0.767c0.148,0.17,0.349,0.255,0.594,0.255
					c0.254,0,0.455-0.085,0.611-0.255c0.156-0.173,0.231-0.426,0.231-0.767v-2.153c0-0.695,0.062-1.178,0.178-1.452
					c0.109-0.209,0.259-0.383,0.45-0.508c0.192-0.125,0.396-0.191,0.609-0.191c0.264,0,0.463,0.072,0.596,0.215
					c0.128,0.142,0.209,0.319,0.239,0.529c0.029,0.209,0.043,0.486,0.043,0.836v2.725c0,0.336,0.079,0.591,0.235,0.765
					c0.157,0.171,0.356,0.258,0.603,0.258c0.253,0,0.458-0.085,0.612-0.255c0.154-0.173,0.229-0.426,0.229-0.767v-3.163
					c0-0.629-0.068-1.09-0.206-1.385C324.128,469.734,323.888,469.484,323.569,469.31z"/>
			</g>
			<g id="XMLID_366_">
				<path id="XMLID_379_" style="fill:#3F3F3F;" d="M245.273,471.941c-0.001-0.004-0.001-0.006-0.001-0.011
					C245.272,471.935,245.272,471.937,245.273,471.941z"/>
				<path id="XMLID_378_" style="fill:#3F3F3F;" d="M245.355,472.458c0.001,0,0.001,0,0.001,0c-0.031-0.147-0.055-0.294-0.073-0.438
					C245.301,472.166,245.326,472.313,245.355,472.458z"/>
				<path id="XMLID_377_" style="fill:#3F3F3F;" d="M245.891,473.962c-0.004-0.006-0.007-0.013-0.01-0.021
					C245.885,473.949,245.888,473.956,245.891,473.962z"/>
				<path id="XMLID_376_" style="fill:#3F3F3F;" d="M245.84,473.862c-0.014-0.027-0.027-0.056-0.041-0.084
					C245.813,473.808,245.826,473.835,245.84,473.862z"/>
				<path id="XMLID_375_" style="fill:#3F3F3F;" d="M245.506,473.038c0.079,0.25,0.175,0.492,0.286,0.724
					c-0.113-0.236-0.206-0.479-0.284-0.724H245.506z"/>
				<path id="XMLID_374_" style="fill:#3F3F3F;" d="M250.736,465.178l-0.076-0.259c0.299-0.063,0.524-0.329,0.524-0.646
					c0-0.364-0.297-0.659-0.66-0.659c-0.365,0-0.66,0.295-0.66,0.659c0,0.317,0.225,0.583,0.522,0.646l0.084,0.289
					c-1.021,0.14-1.834,0.539-1.834,0.539l0.144,0.441c0.618-0.206,1.153-0.331,1.64-0.383c0.476-0.051,0.834-0.073,1.126-0.073
					c0.314,0,0.544,0.025,0.809,0.069l0.075-0.476C252.429,465.325,251.698,465.099,250.736,465.178z"/>
				<path id="XMLID_373_" style="fill:#3F3F3F;" d="M245.453,467.685c-0.017,0.024-0.497,0.465-0.876,1.28
					c-0.016-0.026-0.035-0.051-0.056-0.074c-0.113-0.124-0.272-0.187-0.474-0.184c-0.002,0-0.006,0-0.01,0
					c-0.125,0-0.21-0.042-0.266-0.092c0.056-0.071,0.089-0.161,0.089-0.258c0-0.231-0.187-0.419-0.419-0.419
					c-0.23,0-0.417,0.188-0.417,0.419c0,0.231,0.187,0.417,0.417,0.417c0.037,0,0.071-0.005,0.105-0.012
					c0.103,0.113,0.266,0.214,0.504,0.209c0.123-0.001,0.214,0.03,0.273,0.097c0.07,0.076,0.093,0.185,0.1,0.267
					c-0.001,0.002-0.001,0.004-0.002,0.004c-0.272,0.743-0.195,1.668-0.195,1.668l0.661,0.026c0.013-0.336,0.062-0.926,0.232-1.393
					c0.328-0.906,0.741-1.472,0.757-1.496l0.004-0.005c0.024-0.031,0.047-0.06,0.071-0.089l-0.196-0.142L245.453,467.685z"/>
				<path id="XMLID_372_" style="fill:#3F3F3F;" d="M257.293,466.284c-0.23,0-0.418,0.187-0.418,0.417
					c0,0.037,0.006,0.071,0.015,0.104c-0.115,0.104-0.214,0.267-0.211,0.507c0.002,0.123-0.03,0.212-0.096,0.273
					c-0.053,0.047-0.12,0.072-0.185,0.088c-0.492-0.689-1.097-1.109-1.097-1.109l-0.474,0.508c0.358,0.326,0.724,0.734,1.08,1.244
					c0.246,0.352,0.499,0.806,0.71,1.259l0.64-0.304c0,0-0.292-0.722-0.704-1.369c0.071-0.025,0.143-0.064,0.207-0.12
					c0.125-0.113,0.187-0.273,0.183-0.474c-0.001-0.13,0.041-0.218,0.093-0.276c0.071,0.054,0.16,0.089,0.257,0.089
					c0.232,0,0.419-0.187,0.419-0.419C257.712,466.471,257.525,466.284,257.293,466.284z"/>
				<path id="XMLID_371_" style="fill:#3F3F3F;" d="M255.633,472.034c-0.881,0.429-2.33,0.996-4.237,1.262
					c-0.749,0.104-1.474,0.142-2.143,0.142c-0.869,0-1.637-0.065-2.226-0.139c-0.673-0.085-1.198-0.189-1.52-0.261
					c0.078,0.245,0.171,0.488,0.284,0.724c0.002,0.006,0.005,0.013,0.008,0.017c0.013,0.027,0.027,0.056,0.041,0.084
					c0.013,0.027,0.027,0.054,0.041,0.079c0.004,0.007,0.007,0.015,0.01,0.021c0.189,0.357,0.417,0.684,0.675,0.968
					c0.9,0.984,1.816,1.139,1.825,1.141l0.015,0.002l0.013,0.005c0.009,0.003,0.821,0.265,2.056,0.265
					c1.216,0,2.409-0.245,3.546-0.729c0.842-0.431,1.639-1.085,2.033-1.668c0.305-0.452,0.526-0.934,0.656-1.434
					c0.07-0.266,0.125-0.693,0.092-1.141C256.555,471.539,256.163,471.776,255.633,472.034z"/>
				<path id="XMLID_367_" style="fill:#3F3F3F;" d="M252.322,466.152c-0.264-0.043-0.477-0.068-0.777-0.068
					c-0.279,0-0.626,0.022-1.089,0.071c-0.465,0.049-0.982,0.171-1.583,0.373c-0.842,0.282-1.604,0.724-2.204,1.28l-0.02,0.019
					c-0.089,0.081-0.275,0.254-0.488,0.526c-0.026,0.037-0.408,0.578-0.709,1.408c-0.226,0.622-0.216,1.527-0.216,1.537v0.002
					c0,0.212,0.012,0.423,0.036,0.632c0,0.005,0,0.007,0.001,0.011c0.002,0.027,0.007,0.052,0.01,0.079
					c0.018,0.144,0.043,0.291,0.074,0.438c0.438,0.112,3.048,0.721,5.966,0.314c1.829-0.254,3.218-0.795,4.061-1.204
					c0.701-0.34,1.151-0.647,1.325-0.774c-0.173-0.643-0.651-1.65-1.089-2.279C254.367,466.726,253.016,466.266,252.322,466.152z
					 M248.679,471.41c-0.971,0-1.759-0.787-1.759-1.759c0-0.972,0.788-1.761,1.759-1.761c0.973,0,1.76,0.788,1.76,1.761
					C250.439,470.624,249.652,471.41,248.679,471.41z M253.828,470.114c-0.601,0-1.089-0.489-1.089-1.09
					c0-0.602,0.488-1.089,1.089-1.089c0.601,0,1.089,0.487,1.089,1.089C254.918,469.625,254.429,470.114,253.828,470.114z"/>
			</g>
		</g>
	</g>
</g>
</svg>
